0
SECTION
2
HEADER
9
$INSUNITS
70
4
9
$ACADVER
1
AC1014
9
$HANDSEED
5
FFFF
0
ENDSEC
0
SECTION
2
TABLES
0
TABLE
2
VPORT
5
8
100
AcDbSymbolTable
0
ENDTAB
0
TABLE
2
LTYPE
5
5
100
AcDbSymbolTable
0
LTYPE
5
14
100
AcDbSymbolTableRecord
100
AcDbLinetypeTableRecord
2
BYBLOCK
70
0
0
LTYPE
5
15
100
AcDbSymbolTableRecord
100
AcDbLinetypeTableRecord
2
BYLAYER
70
0
0
LTYPE
5
16
100
AcDbSymbolTableRecord
100
AcDbLinetypeTableRecord
2
DASHED
70
0
3
Dashed __ __ __ __ __ __ __ __ __ __ __ __ __ _
72
65
73
2
40
0.75
49
0.5
74
0
49
-0.25
74
0
0
ENDTAB
0
TABLE
2
LAYER
5
2
100
AcDbSymbolTable
70
2
0
LAYER
5
50
100
AcDbSymbolTableRecord
100
AcDbLayerTableRecord
2
0
70
0
62
7
6
CONTINUOUS
0
ENDTAB
0
TABLE
2
STYLE
5
3
100
AcDbSymbolTable
70
1
0
STYLE
5
11
100
AcDbSymbolTableRecord
100
AcDbTextStyleTableRecord
2
STANDARD
70
0
0
ENDTAB
0
TABLE
2
VIEW
5
6
100
AcDbSymbolTable
70
0
0
ENDTAB
0
TABLE
2
UCS
5
7
100
AcDbSymbolTable
70
0
0
ENDTAB
0
TABLE
2
APPID
5
9
100
AcDbSymbolTable
70
2
0
APPID
5
12
100
AcDbSymbolTableRecord
100
AcDbRegAppTableRecord
2
ACAD
70
0
0
ENDTAB
0
TABLE
2
DIMSTYLE
5
A
100
AcDbSymbolTable
70
1
0
ENDTAB
0
TABLE
2
BLOCK_RECORD
5
1
100
AcDbSymbolTable
70
1
0
BLOCK_RECORD
5
1F
100
AcDbSymbolTableRecord
100
AcDbBlockTableRecord
2
*MODEL_SPACE
0
BLOCK_RECORD
5
1B
100
AcDbSymbolTableRecord
100
AcDbBlockTableRecord
2
*PAPER_SPACE
0
ENDTAB
0
ENDSEC
0
SECTION
2
BLOCKS
0
BLOCK
5
20
100
AcDbEntity
100
AcDbBlockBegin
2
*MODEL_SPACE
0
ENDBLK
5
21
100
AcDbEntity
100
AcDbBlockEnd
0
BLOCK
5
1C
100
AcDbEntity
100
AcDbBlockBegin
2
*PAPER_SPACE
0
ENDBLK
5
1D
100
AcDbEntity
100
AcDbBlockEnd
0
ENDSEC
0
SECTION
2
ENTITIES
0
LINE
5
100
100
AcDbEntity
8
0
100
AcDbLine
10
14.18832164347176
20
-28.613814509947222
30
0
11
14.185780643480117
21
-28.833880509947605
31
0
0
LINE
5
101
100
AcDbEntity
8
0
100
AcDbLine
10
14.18832164347176
20
-28.613814509947222
30
0
11
14.188325643477274
21
28.536214490052785
31
0
0
ARC
5
102
100
AcDbEntity
8
0
100
AcDbCircle
10
9.430326990171773
20
-28.615868260747209
30
0
40
4.7604483811469986
210
0
220
0
230
1
100
AcDbArc
50
269.94577456386014
51
357.37513124080135
0
LINE
5
103
100
AcDbEntity
8
0
100
AcDbLine
10
-47.724178356528256
20
-33.376314509947193
30
0
11
9.4258216434717674
21
-33.376314509936059
31
0
0
ARC
5
104
100
AcDbEntity
8
0
100
AcDbCircle
10
-47.726312265188248
20
-28.618397441947209
30
0
40
4.7603682973909907
210
0
220
0
230
1
100
AcDbArc
50
179.94483983474888
51
267.37602874719084
0
LINE
5
105
100
AcDbEntity
8
0
100
AcDbLine
10
-47.724178356528256
20
-33.376314509947193
30
0
11
-47.944246356527188
21
-33.373774509923784
31
0
0
LINE
5
106
100
AcDbEntity
8
0
100
AcDbLine
10
-52.486678356528216
20
28.499999362975359
30
0
11
-52.486678356524024
21
-28.613814509947218
31
0
0
ARC
5
107
100
AcDbEntity
8
0
100
AcDbCircle
10
-47.724589156440871
20
28.53592280036689
30
0
40
4.7627627074021701
210
0
220
-0
230
1
100
AcDbArc
50
89.995058099113407
51
180.96357258325185
0
LINE
5
108
100
AcDbEntity
8
0
100
AcDbLine
10
-30.517143823753813
20
33.298694221530788
30
0
11
-47.724178356528256
21
33.298685490052812
31
0
0
LINE
5
109
100
AcDbEntity
8
0
100
AcDbLine
10
9.4258256434717502
20
33.298714490052802
30
0
11
-47.724178356528256
21
33.298685490052812
31
0
0
ARC
5
110
100
AcDbEntity
8
0
100
AcDbCircle
10
9.4278891000717628
20
28.540728145732803
30
0
40
4.760438683238994
210
0
220
0
230
1
100
AcDbArc
50
-0.054325552030122806
51
87.375230781194929
0
LINE
5
111
100
AcDbEntity
8
0
100
AcDbLine
10
9.6458926434718411
20
33.296172490054708
30
0
11
9.4258256434717502
21
33.298714490052802
31
0
0
CIRCLE
5
112
100
AcDbEntity
8
0
100
AcDbCircle
10
9.4258216434717568
20
28.536185490052802
30
0
40
1.1000000000000001
210
0
220
-0
230
1
0
CIRCLE
5
113
100
AcDbEntity
8
0
100
AcDbCircle
10
9.4258216434717745
20
-28.613814509947222
30
0
40
1.1000000000000001
210
0
220
-0
230
1
0
CIRCLE
5
114
100
AcDbEntity
8
0
100
AcDbCircle
10
-47.724178356528256
20
-28.613814509947204
30
0
40
1.1000000000000001
210
0
220
-0
230
1
0
CIRCLE
5
115
100
AcDbEntity
8
0
100
AcDbCircle
10
-47.724178356528256
20
28.536185490052802
30
0
40
1.1000000000000001
210
0
220
-0
230
1
0
ENDSEC
0
SECTION
2
OBJECTS
0
DICTIONARY
5
C
100
AcDbDictionary
3
ACAD_GROUP
350
D
3
ACAD_MLINESTYLE
350
17
0
DICTIONARY
5
D
100
AcDbDictionary
0
DICTIONARY
5
1A
330
C
100
AcDbDictionary
0
DICTIONARY
5
17
100
AcDbDictionary
0
ENDSEC
0
EOF
