0
SECTION
2
HEADER
9
$INSUNITS
70
4
9
$ACADVER
1
AC1014
9
$HANDSEED
5
FFFF
0
ENDSEC
0
SECTION
2
TABLES
0
TABLE
2
VPORT
5
8
100
AcDbSymbolTable
0
ENDTAB
0
TABLE
2
LTYPE
5
5
100
AcDbSymbolTable
0
LTYPE
5
14
100
AcDbSymbolTableRecord
100
AcDbLinetypeTableRecord
2
BYBLOCK
70
0
0
LTYPE
5
15
100
AcDbSymbolTableRecord
100
AcDbLinetypeTableRecord
2
BYLAYER
70
0
0
LTYPE
5
16
100
AcDbSymbolTableRecord
100
AcDbLinetypeTableRecord
2
DASHED
70
0
3
Dashed __ __ __ __ __ __ __ __ __ __ __ __ __ _
72
65
73
2
40
0.75
49
0.5
74
0
49
-0.25
74
0
0
ENDTAB
0
TABLE
2
LAYER
5
2
100
AcDbSymbolTable
70
2
0
LAYER
5
50
100
AcDbSymbolTableRecord
100
AcDbLayerTableRecord
2
0
70
0
62
7
6
CONTINUOUS
0
ENDTAB
0
TABLE
2
STYLE
5
3
100
AcDbSymbolTable
70
1
0
STYLE
5
11
100
AcDbSymbolTableRecord
100
AcDbTextStyleTableRecord
2
STANDARD
70
0
0
ENDTAB
0
TABLE
2
VIEW
5
6
100
AcDbSymbolTable
70
0
0
ENDTAB
0
TABLE
2
UCS
5
7
100
AcDbSymbolTable
70
0
0
ENDTAB
0
TABLE
2
APPID
5
9
100
AcDbSymbolTable
70
2
0
APPID
5
12
100
AcDbSymbolTableRecord
100
AcDbRegAppTableRecord
2
ACAD
70
0
0
ENDTAB
0
TABLE
2
DIMSTYLE
5
A
100
AcDbSymbolTable
70
1
0
ENDTAB
0
TABLE
2
BLOCK_RECORD
5
1
100
AcDbSymbolTable
70
1
0
BLOCK_RECORD
5
1F
100
AcDbSymbolTableRecord
100
AcDbBlockTableRecord
2
*MODEL_SPACE
0
BLOCK_RECORD
5
1B
100
AcDbSymbolTableRecord
100
AcDbBlockTableRecord
2
*PAPER_SPACE
0
ENDTAB
0
ENDSEC
0
SECTION
2
BLOCKS
0
BLOCK
5
20
100
AcDbEntity
100
AcDbBlockBegin
2
*MODEL_SPACE
0
ENDBLK
5
21
100
AcDbEntity
100
AcDbBlockEnd
0
BLOCK
5
1C
100
AcDbEntity
100
AcDbBlockBegin
2
*PAPER_SPACE
0
ENDBLK
5
1D
100
AcDbEntity
100
AcDbBlockEnd
0
ENDSEC
0
SECTION
2
ENTITIES
0
LWPOLYLINE
5
100
100
AcDbEntity
8
0
100
AcDbPolyline
90
4
70
1
43
0.0
10
-7.0000001043081284
20
7.0000001043081284
10
7.0000001043081284
20
7.0000001043081284
10
7.0000001043081284
20
-7.0000001043081284
10
-7.0000001043081284
20
-7.0000001043081284
0
LWPOLYLINE
5
101
100
AcDbEntity
8
0
100
AcDbPolyline
90
4
70
1
43
0.0
10
12.000000178813934
20
7.0000001043081284
10
26.000000387430191
20
7.0000001043081284
10
26.000000387430191
20
-7.0000001043081284
10
12.000000178813934
20
-7.0000001043081284
0
LWPOLYLINE
5
102
100
AcDbEntity
8
0
100
AcDbPolyline
90
4
70
1
43
0.0
10
31.000000461935997
20
7.0000001043081284
10
45.000000670552254
20
7.0000001043081284
10
45.000000670552254
20
-7.0000001043081284
10
31.000000461935997
20
-7.0000001043081284
0
LWPOLYLINE
5
103
100
AcDbEntity
8
0
100
AcDbPolyline
90
4
70
1
43
0.0
10
-7.0000001043081284
20
-12.000000178813934
10
7.0000001043081284
20
-12.000000178813934
10
7.0000001043081284
20
-26.000000387430191
10
-7.0000001043081284
20
-26.000000387430191
0
LWPOLYLINE
5
104
100
AcDbEntity
8
0
100
AcDbPolyline
90
4
70
1
43
0.0
10
12.000000178813934
20
-12.000000178813934
10
26.000000387430191
20
-12.000000178813934
10
26.000000387430191
20
-26.000000387430191
10
12.000000178813934
20
-26.000000387430191
0
LWPOLYLINE
5
105
100
AcDbEntity
8
0
100
AcDbPolyline
90
4
70
1
43
0.0
10
31.000000461935997
20
-12.000000178813934
10
45.000000670552254
20
-12.000000178813934
10
45.000000670552254
20
-26.000000387430191
10
31.000000461935997
20
-26.000000387430191
0
CIRCLE
5
106
100
AcDbEntity
8
0
100
AcDbCircle
10
-9.4258216434717568
20
28.536185490052802
30
0
40
1.1000000000000001
210
5.7777898331617076e-34
220
-3.4694469519536142e-18
230
1
0
ARC
5
107
100
AcDbEntity
8
0
100
AcDbCircle
10
-9.4278891000717646
20
28.540728145732803
30
4.8148248609680896e-32
40
4.7604386832389904
210
-4.959269606797131e-33
220
-3.4694469519536123e-18
230
1
100
AcDbArc
50
92.624769218805056
51
180.05432555203015
0
CIRCLE
5
108
100
AcDbEntity
8
0
100
AcDbCircle
10
47.724178356528256
20
28.536185490052802
30
0
40
1.1000000000000001
210
5.7777898331617076e-34
220
-3.4694469519536142e-18
230
1
0
ARC
5
109
100
AcDbEntity
8
0
100
AcDbCircle
10
47.724589156440871
20
28.53592280036689
30
-2.8888949165808538e-32
40
4.7627627074021657
210
-5.832164967165496e-20
220
-3.468466034305457e-18
230
1
100
AcDbArc
50
-0.96357258325222261
51
90.004941900886607
0
LINE
5
110
100
AcDbEntity
8
0
100
AcDbLine
10
52.486678356528216
20
28.499999362975359
30
0
11
52.486678356528216
21
-28.613814509947211
31
-1.9827899391811069e-16
0
CIRCLE
5
111
100
AcDbEntity
8
0
100
AcDbCircle
10
47.724178356528256
20
-28.613814509947204
30
0
40
1.1000000000000001
210
5.7777898331617076e-34
220
-3.4694469519536142e-18
230
1
0
ARC
5
112
100
AcDbEntity
8
0
100
AcDbCircle
10
47.726312265188241
20
-28.618397441947199
30
-1.5407439555097887e-32
40
4.7603682973910013
210
-2.4074124304840448e-33
220
-3.4694469519536107e-18
230
1
100
AcDbArc
50
-87.376028747190787
51
0.055160165251121974
0
LINE
5
113
100
AcDbEntity
8
0
100
AcDbLine
10
47.724178356528256
20
-33.376314509947193
30
0
11
-9.4258216434717568
21
-33.376314509947193
31
2.2013379264346113e-32
0
CIRCLE
5
114
100
AcDbEntity
8
0
100
AcDbCircle
10
-9.4258216434717745
20
-28.613814509947222
30
0
40
1.1000000000000001
210
5.7777898331617076e-34
220
-3.4694469519536142e-18
230
1
0
ARC
5
115
100
AcDbEntity
8
0
100
AcDbCircle
10
-9.4303269901717695
20
-28.615868260747206
30
-5.7777898331617076e-33
40
4.760448381147004
210
1.2759285881565434e-33
220
-3.4694469519536115e-18
230
1
100
AcDbArc
50
182.62486875919873
51
270.0542254361398
0
LINE
5
116
100
AcDbEntity
8
0
100
AcDbLine
10
-14.18832164347176
20
-28.613814509947222
30
0
11
-14.188325643477274
21
28.536214490052785
31
-1.5659888941174207e-20
0
LINE
5
117
100
AcDbEntity
8
0
100
AcDbLine
10
-14.18832164347176
20
-28.613814509947222
30
0
11
-14.185780643480117
21
-28.833880509947605
31
-7.563819334768747e-19
0
LINE
5
118
100
AcDbEntity
8
0
100
AcDbLine
10
-9.6458926434718411
20
33.296172490054708
30
1.6498761885592724e-17
11
-9.4258256434717502
21
33.298714490052802
31
0
0
LINE
5
119
100
AcDbEntity
8
0
100
AcDbLine
10
47.724178356528256
20
-33.376314509947193
30
0
11
47.944246356527188
21
-33.373774509923784
31
-1.6498528473881467e-17
0
LINE
5
120
100
AcDbEntity
8
0
100
AcDbLine
10
11.000000163912773
20
10.000000149011612
30
0
11
27.000000402331352
21
10.000000149011612
31
-2.7932629423711634e-23
0
LINE
5
121
100
AcDbEntity
8
0
100
AcDbLine
10
9.0000001341104507
20
12.000000178813934
30
0
11
9.0000001341104507
21
31.000000461935997
31
0
0
LINE
5
122
100
AcDbEntity
8
0
100
AcDbLine
10
29.000000432133675
20
31.000000461935997
30
0
11
29.000000432133675
21
12.000000178813934
31
0
0
ARC
5
123
100
AcDbEntity
8
0
100
AcDbCircle
10
27.000000402331352
20
12.000000178813934
30
0
40
2.0000000298023224
210
0
220
-1.3966314503741513e-23
230
1
100
AcDbArc
50
-90
51
0
0
ARC
5
124
100
AcDbEntity
8
0
100
AcDbCircle
10
11.000000163912773
20
12.000000178813934
30
0
40
2.0000000298023224
210
0
220
0
230
1
100
AcDbArc
50
180
51
270
0
ARC
5
125
100
AcDbEntity
8
0
100
AcDbCircle
10
6.5000000968575478
20
31.000000461935997
30
0
40
2.500000037252903
210
-0
220
1.2843820022801369e-23
230
1
100
AcDbArc
50
0
51
66.850495097511086
0
ARC
5
126
100
AcDbEntity
8
0
100
AcDbCircle
10
31.500000469386578
20
31.000000461935997
30
0
40
2.5000000372529039
210
5.8774717541114375e-39
220
3.0514875114551319e-23
230
1
100
AcDbArc
50
113.15018629211444
51
180
0
LINE
5
127
100
AcDbEntity
8
0
100
AcDbLine
10
-9.4258256434717502
20
33.298714490052802
30
0
11
7.4828294052226196
21
33.298705909983475
31
-2.9524159060154778e-23
0
LINE
5
128
100
AcDbEntity
8
0
100
AcDbLine
10
30.517143823753813
20
33.298694221530788
30
-7.0144353000633454e-23
11
47.724178356528256
21
33.298685490052812
31
-1.0061396160267246e-22
0
ENDSEC
0
SECTION
2
OBJECTS
0
DICTIONARY
5
C
100
AcDbDictionary
3
ACAD_GROUP
350
D
3
ACAD_MLINESTYLE
350
17
0
DICTIONARY
5
D
100
AcDbDictionary
0
DICTIONARY
5
1A
330
C
100
AcDbDictionary
0
DICTIONARY
5
17
100
AcDbDictionary
0
ENDSEC
0
EOF
